<svg id="visual" viewBox="0 0 900 600" width="900" height="600" xmlns="http://www.w3.org/2000/svg" xmlns:xlink="http://www.w3.org/1999/xlink" version="1.1"><rect x="0" y="0" width="900" height="600" fill="#209bff"></rect><path d="M0 414L100 411L200 421L300 440L400 463L500 459L600 435L700 427L800 465L900 481L900 601L800 601L700 601L600 601L500 601L400 601L300 601L200 601L100 601L0 601Z" fill="#39ca23"></path><path d="M0 454L100 471L200 442L300 488L400 424L500 452L600 446L700 430L800 475L900 447L900 601L800 601L700 601L600 601L500 601L400 601L300 601L200 601L100 601L0 601Z" fill="#39be26"></path><path d="M0 511L100 505L200 448L300 463L400 474L500 496L600 503L700 495L800 512L900 478L900 601L800 601L700 601L600 601L500 601L400 601L300 601L200 601L100 601L0 601Z" fill="#39b328"></path><path d="M0 487L100 498L200 479L300 511L400 484L500 484L600 512L700 470L800 516L900 518L900 601L800 601L700 601L600 601L500 601L400 601L300 601L200 601L100 601L0 601Z" fill="#39a829"></path><path d="M0 514L100 512L200 515L300 526L400 509L500 524L600 492L700 533L800 521L900 512L900 601L800 601L700 601L600 601L500 601L400 601L300 601L200 601L100 601L0 601Z" fill="#399c2a"></path><path d="M0 518L100 554L200 540L300 537L400 541L500 516L600 518L700 539L800 514L900 520L900 601L800 601L700 601L600 601L500 601L400 601L300 601L200 601L100 601L0 601Z" fill="#38922b"></path><path d="M0 545L100 563L200 547L300 539L400 539L500 552L600 551L700 544L800 568L900 568L900 601L800 601L700 601L600 601L500 601L400 601L300 601L200 601L100 601L0 601Z" fill="#37872b"></path><path d="M0 567L100 585L200 572L300 576L400 568L500 560L600 574L700 567L800 568L900 585L900 601L800 601L700 601L600 601L500 601L400 601L300 601L200 601L100 601L0 601Z" fill="#367c2b"></path></svg>